%FSLAX35Y35*%
%MOIN*%
%IN2 = Copper bottom L1   ( x.Bot )*%
%ADD10C,0.00591*%
%ADD11C,0.00768*%
%ADD12C,0.00787*%
%ADD13C,0.01024*%
%ADD14C,0.01181*%
%ADD15C,0.01969*%
%ADD16R,0.01500X0.10000*%
%ADD17R,0.09843X0.05000*%
%ADD18R,0.10000X0.01500*%
%ADD19R,0.12598X0.12598*%
%AMOCT_20*4,1,8,0.031496,0.015748,0.015748,0.031496,-0.015748,0.031496,-0.031496,0.015748,-0.031496,-0.015748,-0.015748,-0.031496,0.015748,-0.031496,0.031496,-0.015748,0.031496,0.015748,0*%
%ADD20OCT_20*%
%AMOCT_21*4,1,8,0.039370,0.013780,0.025591,0.027559,-0.025591,0.027559,-0.039370,0.013780,-0.039370,-0.013780,-0.025591,-0.027559,0.025591,-0.027559,0.039370,-0.013780,0.039370,0.013780,0*%
%ADD21OCT_21*%
%AMOCT_22*4,1,8,0.039370,0.019685,0.019685,0.039370,-0.019685,0.039370,-0.039370,0.019685,-0.039370,-0.019685,-0.019685,-0.039370,0.019685,-0.039370,0.039370,-0.019685,0.039370,0.019685,0*%
%ADD22OCT_22*%
%AMOCT_23*4,1,8,0.049213,0.012500,0.036713,0.025000,-0.036713,0.025000,-0.049213,0.012500,-0.049213,-0.012500,-0.036713,-0.025000,0.036713,-0.025000,0.049213,-0.012500,0.049213,0.012500,0*%
%ADD23OCT_23*%
%AMOCT_24*4,1,8,0.078740,0.039370,0.039370,0.078740,-0.039370,0.078740,-0.078740,0.039370,-0.078740,-0.039370,-0.039370,-0.078740,0.039370,-0.078740,0.078740,-0.039370,0.078740,0.039370,0*%
%ADD24OCT_24*%
G54D15*
X206309Y200856D02*
X206309Y215856D01*
X57372Y205856D02*
X57372Y209419D01*
X61309Y213356D01*
X100059Y213356D01*
X110059Y203356D01*
X227559Y168356D02*
X223809Y168356D01*
X218809Y173356D01*
X218809Y188356D01*
X206309Y200856D01*
X238809Y188356D02*
X236309Y185856D01*
X236309Y177106D01*
X227559Y168356D01*
X238809Y188356D02*
X240059Y189606D01*
X255059Y189606D01*
X258809Y185856D01*
X258809Y173356D01*
X250059Y164606D01*
X250059Y152106D01*
X110059Y203356D02*
X136309Y203356D01*
X142559Y209606D01*
X175059Y209606D01*
X197559Y209606D02*
X206309Y200856D01*
X192559Y220856D02*
X192559Y209606D01*
X197559Y209606D01*
X175059Y209606D02*
X192559Y209606D01*
X175059Y230856D02*
X178809Y230856D01*
X188809Y220856D01*
X192559Y220856D01*
X90059Y233356D02*
X90059Y239606D01*
X95059Y244606D01*
X34133Y203681D02*
X33809Y203681D01*
X34133Y203681D02*
X33809Y203681D01*
X34133Y203681D02*
X33809Y203681D01*
X34133Y203681D01*
X33809Y203681D02*
X34133Y203681D01*
X33809Y39281D02*
X29133Y34606D01*
X21309Y34606D01*
X15059Y40856D01*
X15059Y202106D01*
X20059Y207106D01*
X30383Y207106D01*
X33809Y203681D01*
X34133Y203681D01*
X33809Y203681D02*
X34133Y203681D01*
X33809Y203681D02*
X34133Y203681D01*
X33809Y203681D02*
X34133Y203681D01*
X256417Y10561D02*
X249212Y3356D01*
X146309Y3356D01*
X146309Y10856D02*
X146309Y3356D01*
X61309Y138169D02*
X64872Y138169D01*
X75059Y148356D01*
X92559Y148356D01*
X256417Y10561D02*
X256417Y36151D01*
X256417Y48061D02*
X256417Y73651D01*
X256417Y85561D01*
X66200Y103651D02*
X66200Y78061D01*
X256417Y85561D02*
X256417Y111151D01*
X115059Y168356D02*
X103809Y168356D01*
X92559Y157106D01*
X92559Y148356D01*
X33809Y39281D02*
X66200Y39281D01*
X66200Y78061D02*
X66200Y60856D01*
X108809Y60856D02*
X66200Y60856D01*
X66200Y39281D01*
X250059Y194606D02*
X248809Y195856D01*
X250059Y194606D02*
X227559Y194606D01*
X227559Y178356D01*
X250059Y194606D02*
X257559Y194606D01*
X33809Y203681D02*
X49734Y219606D01*
X33809Y203681D02*
X34133Y203681D01*
X33809Y203681D02*
X34133Y203681D01*
X33809Y203681D02*
X34133Y203681D01*
X49734Y219606D02*
X76309Y219606D01*
X90059Y233356D01*
X256417Y111151D02*
X267263Y111151D01*
X267559Y110856D01*
X267263Y111151D02*
X267559Y110856D01*
X267263Y111151D02*
X267559Y110856D01*
X267263Y111151D01*
X267559Y110856D02*
X267263Y111151D01*
X256417Y73651D02*
X267263Y73651D01*
X267559Y73356D01*
X267263Y73651D02*
X267559Y73356D01*
X267263Y73651D02*
X267559Y73356D01*
X267263Y73651D01*
X267559Y73356D02*
X267263Y73651D01*
X256417Y36151D02*
X267263Y36151D01*
X256417Y36151D02*
X256417Y48061D01*
X267263Y36151D02*
X267559Y35856D01*
X267263Y36151D02*
X267559Y35856D01*
X267263Y36151D02*
X267559Y35856D01*
X267263Y36151D01*
X267559Y35856D02*
X267263Y36151D01*
X115059Y168356D02*
X121309Y174606D01*
X121309Y188356D01*
X116309Y193356D01*
X110059Y193356D01*
X92559Y148356D02*
X92559Y128356D01*
X67854Y103651D01*
X66200Y103651D01*
X206309Y235856D02*
X227559Y214606D01*
X227559Y194606D01*
X95059Y244606D02*
X116309Y244606D01*
X120059Y240856D01*
X131309Y240856D01*
X192559Y240856D02*
X197559Y235856D01*
X206309Y235856D01*
X131309Y232293D02*
X131309Y240856D01*
X165059Y240856D01*
X165059Y230856D02*
X165059Y240856D01*
X192559Y240856D01*
X270059Y152106D02*
X270059Y182106D01*
X257559Y194606D01*
X108809Y48356D02*
X108809Y60856D01*
X66200Y39281D02*
X80383Y39281D01*
X108809Y10856D01*
X116309Y3356D01*
X146309Y3356D01*
X116309Y100856D02*
X108809Y93356D01*
X108809Y60856D01*
X116309Y100856D02*
X126309Y110856D01*
X130059Y110856D01*
X110059Y153356D02*
X103809Y153356D01*
X100059Y149606D01*
X100059Y133356D01*
X122559Y135856D02*
X156309Y135856D01*
X158809Y133356D01*
X105059Y128356D02*
X100059Y133356D01*
X146309Y100856D02*
X151309Y100856D01*
X158809Y108356D01*
X158809Y133356D01*
X122559Y135856D02*
X115059Y128356D01*
X105059Y128356D01*
X146309Y170856D02*
X137559Y170856D01*
X110059Y143356D01*
X110059Y163356D02*
X105059Y163356D01*
X96309Y154606D01*
X151309Y125856D02*
X155059Y122106D01*
X155059Y115856D01*
X150059Y110856D01*
X146309Y110856D01*
X96309Y130856D02*
X96309Y154606D01*
X102559Y124606D02*
X96309Y130856D01*
X121309Y125856D02*
X120059Y124606D01*
X102559Y124606D01*
X151309Y125856D02*
X121309Y125856D01*
X110059Y133356D02*
X113809Y133356D01*
X152559Y145856D02*
X155059Y148356D01*
X155059Y172106D01*
X146309Y180856D01*
X110059Y133356D02*
X122559Y145856D01*
X152559Y145856D01*
X33809Y171318D02*
X48021Y157106D01*
X71309Y157106D01*
X72559Y158356D01*
X85059Y158356D01*
X110059Y183356D01*
X80059Y133356D02*
X71309Y133356D01*
X47559Y109606D01*
X47559Y85393D01*
X33809Y71643D01*
X110059Y173356D02*
X115059Y173356D01*
X117559Y175856D01*
X117559Y185856D01*
X115059Y188356D01*
X96309Y188356D01*
X86309Y178356D01*
X68809Y178356D01*
X65059Y174606D01*
X41309Y174606D01*
X33809Y182106D01*
X80059Y143356D02*
X83809Y143356D01*
X88809Y138356D01*
X88809Y130856D01*
X83809Y125856D01*
X75059Y125856D01*
X56309Y107106D01*
X56309Y83356D01*
X33809Y60856D01*
X80059Y153356D02*
X73622Y153356D01*
X66309Y146043D01*
X61309Y146043D01*
X80059Y193356D02*
X77746Y193356D01*
X65246Y205856D01*
X80059Y173356D02*
X68809Y173356D01*
X65059Y169606D01*
X57372Y163356D02*
X57372Y165669D01*
X61309Y169606D01*
X65059Y169606D01*
X80059Y163356D02*
X65246Y163356D01*
X80059Y183356D02*
X63996Y183356D01*
X61309Y180669D01*
X80059Y203356D02*
X88809Y194606D01*
X88809Y190856D01*
X86496Y188543D01*
X61309Y188543D01*
X146309Y150856D02*
X130059Y150856D01*
X146309Y140856D02*
X130059Y140856D01*
X146309Y130856D02*
X130059Y130856D01*
X146309Y120856D02*
X130059Y120856D01*
X123809Y120856D01*
X106604Y103651D01*
X83917Y103651D01*
X83917Y78061D02*
X83917Y103651D01*
X146309Y20856D02*
X126309Y20856D01*
X108809Y20856D01*
X146309Y30856D02*
X136309Y30856D01*
X126309Y40856D01*
X111309Y40856D01*
X108809Y38356D01*
X155059Y230856D02*
X148622Y224419D01*
X131309Y224419D01*
X131309Y210856D02*
X131309Y224419D01*
X278809Y209606D02*
X292559Y195856D01*
X292559Y174606D01*
X280059Y174606D01*
X277559Y110856D02*
X283809Y110856D01*
X287559Y114606D01*
X277559Y73356D02*
X277559Y72106D01*
X287559Y62106D01*
X277559Y35856D02*
X287559Y25856D01*
X287559Y10856D01*
X227559Y138356D02*
X227559Y132106D01*
X206309Y110856D02*
X227559Y132106D01*
X200059Y125856D02*
X155059Y80856D01*
X146309Y80856D01*
X227559Y148356D02*
X220059Y140856D01*
X220059Y130856D01*
X215059Y125856D01*
X200059Y125856D01*
X250059Y184606D02*
X246309Y184606D01*
X241309Y179606D01*
X241309Y150856D01*
X238809Y148356D01*
X227559Y148356D02*
X238809Y148356D01*
X238700Y10561D02*
X206604Y10561D01*
X206309Y10856D01*
X206604Y10561D02*
X206309Y10856D01*
X206604Y10561D02*
X206309Y10856D01*
X206604Y10561D01*
X206309Y10856D02*
X206604Y10561D01*
X238700Y36151D02*
X238700Y10561D01*
X211496Y20856D02*
X238700Y48061D01*
X211496Y20856D02*
X206309Y20856D01*
X238700Y73651D02*
X238700Y48061D01*
X238700Y85561D02*
X230059Y76919D01*
X230059Y45856D01*
X215059Y30856D01*
X206309Y30856D01*
X238700Y111151D02*
X238700Y85561D01*
X206309Y60856D02*
X211309Y60856D01*
X215059Y64606D01*
X287559Y154606D02*
X287559Y137106D01*
X282559Y132106D01*
X233809Y132106D01*
X215059Y113356D01*
X215059Y64606D01*
X211309Y135856D02*
X201309Y135856D01*
X156309Y90856D01*
X146309Y90856D01*
X227559Y158356D02*
X215059Y145856D01*
X215059Y139606D01*
X211309Y135856D01*
X206309Y40856D02*
X200059Y40856D01*
X196309Y44606D01*
X196309Y53356D01*
X198809Y55856D01*
X215059Y55856D01*
X220059Y60856D02*
X215059Y55856D01*
X287559Y50856D02*
X298809Y62106D01*
X298809Y122106D01*
X292559Y128356D01*
X236309Y128356D01*
X220059Y112106D01*
X220059Y60856D02*
X220059Y112106D01*
X225059Y59606D02*
X216309Y50856D01*
X206309Y50856D01*
X287559Y102106D02*
X295059Y109606D01*
X295059Y119606D01*
X291309Y123356D01*
X238809Y123356D01*
X225059Y109606D01*
X225059Y59606D01*
X146309Y70856D02*
X140059Y70856D01*
X120059Y90856D01*
X116309Y90856D01*
X146309Y60856D02*
X140059Y60856D01*
X120059Y80856D01*
X116309Y80856D01*
X146309Y50856D02*
X140059Y50856D01*
X120059Y70856D01*
X116309Y70856D01*
X146309Y40856D02*
X140059Y40856D01*
X120059Y60856D01*
X116309Y60856D01*
X232559Y225856D02*
X248809Y209606D01*
X232559Y233356D02*
X232559Y225856D01*
X275059Y184606D02*
X280059Y184606D01*
X250059Y209606D02*
X275059Y184606D01*
X248809Y209606D02*
X250059Y209606D01*
X110059Y233356D02*
X110059Y227106D01*
X110059Y233356D02*
X110059Y225856D01*
X121309Y214606D01*
X121309Y210856D01*
G54D17*
X146309Y200856D03*
X80059Y203356D03*
X280059Y164606D03*
G54D20*
X61309Y138169D03*
X61309Y146043D03*
X65246Y205856D03*
X57372Y205856D03*
X57372Y163356D03*
X65246Y163356D03*
X61309Y188543D03*
X61309Y180669D03*
X131309Y224419D03*
X131309Y232293D03*
G54D21*
X130059Y120856D03*
X130059Y130856D03*
X130059Y140856D03*
X130059Y150856D03*
G54D22*
X33809Y82431D03*
X33809Y71643D03*
X33809Y60856D03*
X33809Y50068D03*
X23809Y77037D03*
X23809Y66250D03*
X23809Y55462D03*
X23809Y44675D03*
X33809Y39281D03*
X33809Y160531D03*
X33809Y171318D03*
X33809Y182106D03*
X33809Y192893D03*
X33809Y203681D03*
X23809Y165925D03*
X23809Y176712D03*
X23809Y187500D03*
X23809Y198287D03*
X130059Y110856D03*
X238809Y148356D03*
X238809Y188356D03*
X126309Y20856D03*
X126309Y40856D03*
X155059Y230856D03*
X165059Y230856D03*
X175059Y230856D03*
X248809Y209606D03*
X278809Y209606D03*
X292559Y214606D03*
X292559Y174606D03*
X83917Y78061D03*
X83917Y103651D03*
X66200Y78061D03*
X66200Y103651D03*
X287559Y154606D03*
X287559Y114606D03*
X287559Y102106D03*
X287559Y62106D03*
X287559Y50856D03*
X287559Y10856D03*
X277559Y110856D03*
X267559Y110856D03*
X277559Y73356D03*
X267559Y73356D03*
X277559Y35856D03*
X267559Y35856D03*
X256417Y85561D03*
X256417Y111151D03*
X238700Y85561D03*
X238700Y111151D03*
X256417Y48061D03*
X256417Y73651D03*
X238700Y48061D03*
X238700Y73651D03*
X256417Y10561D03*
X256417Y36151D03*
X238700Y10561D03*
X238700Y36151D03*
X227559Y138356D03*
X227559Y148356D03*
X227559Y158356D03*
X227559Y168356D03*
X227559Y178356D03*
X192559Y240856D03*
X192559Y220856D03*
X206309Y215856D03*
X206309Y235856D03*
X250059Y152106D03*
X270059Y152106D03*
X108809Y48356D03*
X108809Y38356D03*
X108809Y10856D03*
X108809Y20856D03*
X116309Y60856D03*
X116309Y70856D03*
X116309Y80856D03*
X116309Y90856D03*
X116309Y100856D03*
X121309Y210856D03*
X131309Y210856D03*
G54D23*
X146309Y190856D03*
X146309Y140856D03*
X146309Y130856D03*
X146309Y180856D03*
X146309Y170856D03*
X146309Y150856D03*
X146309Y160856D03*
X146309Y120856D03*
X146309Y110856D03*
X146309Y100856D03*
X146309Y90856D03*
X146309Y80856D03*
X146309Y70856D03*
X146309Y60856D03*
X146309Y50856D03*
X146309Y40856D03*
X146309Y30856D03*
X146309Y20856D03*
X146309Y10856D03*
X206309Y10856D03*
X206309Y20856D03*
X206309Y30856D03*
X206309Y40856D03*
X206309Y50856D03*
X206309Y60856D03*
X206309Y70856D03*
X206309Y80856D03*
X206309Y90856D03*
X206309Y100856D03*
X206309Y110856D03*
X206309Y120856D03*
X206309Y130856D03*
X206309Y140856D03*
X206309Y150856D03*
X206309Y160856D03*
X206309Y170856D03*
X206309Y180856D03*
X206309Y190856D03*
X206309Y200856D03*
X80059Y193356D03*
X80059Y183356D03*
X80059Y173356D03*
X80059Y163356D03*
X80059Y153356D03*
X80059Y143356D03*
X80059Y133356D03*
X110059Y133356D03*
X110059Y143356D03*
X110059Y153356D03*
X110059Y163356D03*
X110059Y173356D03*
X110059Y183356D03*
X110059Y193356D03*
X110059Y203356D03*
X280059Y174606D03*
X280059Y184606D03*
X280059Y194606D03*
X250059Y194606D03*
X250059Y184606D03*
X250059Y174606D03*
X250059Y164606D03*
G54D24*
X110059Y233356D03*
X90059Y233356D03*
X252559Y233356D03*
X232559Y233356D03*
X63809Y18356D03*
X272559Y230856D03*
X272559Y18356D03*
X63809Y230856D03*
M02*
